<svg width="17" height="17" viewBox="0 0 17 17" fill="none" xmlns="http://www.w3.org/2000/svg">
<path d="M8.29167 0.5C3.98845 0.5 0.5 3.98845 0.5 8.29167C0.5 12.5949 3.98845 16.0833 8.29167 16.0833C12.3412 16.0833 15.6687 12.9945 16.0474 9.04401C16.0651 8.86015 15.9706 8.68368 15.8079 8.59637C15.6451 8.50907 15.4458 8.52799 15.3024 8.64437C14.5144 9.28382 13.5109 9.66667 12.4167 9.66667C9.88536 9.66667 7.83333 7.61464 7.83333 5.08333C7.83333 3.5799 8.55672 2.24555 9.67637 1.40903C9.82441 1.29842 9.89155 1.10973 9.84664 0.930478C9.80174 0.751223 9.65357 0.616469 9.47087 0.588719C9.08607 0.53027 8.69226 0.5 8.29167 0.5Z" fill="#555555" stroke="#B59191" stroke-linejoin="round"/>
</svg>
